G04 EAGLE Gerber RS-274X export*
G75*
%MOMM*%
%FSLAX34Y34*%
%LPD*%
%INBottom Copper*%
%IPPOS*%
%AMOC8*
5,1,8,0,0,1.08239X$1,22.5*%
G01*
%ADD10R,3.175000X1.270000*%
%ADD11C,0.756400*%
%ADD12C,0.406400*%

G36*
X103908Y186198D02*
X103908Y186198D01*
X104027Y186205D01*
X104065Y186218D01*
X104106Y186223D01*
X104216Y186266D01*
X104329Y186303D01*
X104364Y186325D01*
X104401Y186340D01*
X104497Y186409D01*
X104598Y186473D01*
X104626Y186503D01*
X104659Y186526D01*
X104735Y186618D01*
X104816Y186705D01*
X104836Y186740D01*
X104861Y186771D01*
X104912Y186879D01*
X104970Y186983D01*
X104980Y187023D01*
X104997Y187059D01*
X105019Y187176D01*
X105049Y187291D01*
X105053Y187351D01*
X105057Y187371D01*
X105055Y187392D01*
X105059Y187452D01*
X105059Y193040D01*
X105044Y193158D01*
X105037Y193277D01*
X105024Y193315D01*
X105019Y193356D01*
X104976Y193466D01*
X104939Y193579D01*
X104917Y193614D01*
X104902Y193651D01*
X104833Y193747D01*
X104769Y193848D01*
X104739Y193876D01*
X104716Y193909D01*
X104624Y193985D01*
X104537Y194066D01*
X104502Y194086D01*
X104471Y194111D01*
X104363Y194162D01*
X104259Y194220D01*
X104219Y194230D01*
X104183Y194247D01*
X104066Y194269D01*
X103951Y194299D01*
X103891Y194303D01*
X103871Y194307D01*
X103850Y194305D01*
X103790Y194309D01*
X91439Y194309D01*
X91439Y200661D01*
X103790Y200661D01*
X103908Y200676D01*
X104027Y200683D01*
X104065Y200696D01*
X104106Y200701D01*
X104216Y200744D01*
X104329Y200781D01*
X104364Y200803D01*
X104401Y200818D01*
X104497Y200888D01*
X104598Y200951D01*
X104626Y200981D01*
X104659Y201005D01*
X104735Y201096D01*
X104816Y201183D01*
X104836Y201218D01*
X104861Y201249D01*
X104912Y201357D01*
X104970Y201461D01*
X104980Y201501D01*
X104997Y201537D01*
X105019Y201654D01*
X105049Y201769D01*
X105053Y201830D01*
X105057Y201850D01*
X105055Y201870D01*
X105059Y201930D01*
X105059Y204470D01*
X105044Y204588D01*
X105037Y204707D01*
X105024Y204745D01*
X105019Y204785D01*
X104976Y204896D01*
X104939Y205009D01*
X104917Y205044D01*
X104902Y205081D01*
X104833Y205177D01*
X104769Y205278D01*
X104739Y205306D01*
X104716Y205338D01*
X104624Y205414D01*
X104537Y205496D01*
X104502Y205515D01*
X104471Y205541D01*
X104363Y205592D01*
X104259Y205649D01*
X104219Y205660D01*
X104183Y205677D01*
X104066Y205699D01*
X103951Y205729D01*
X103891Y205733D01*
X103871Y205737D01*
X103850Y205735D01*
X103790Y205739D01*
X90170Y205739D01*
X90052Y205724D01*
X89933Y205717D01*
X89895Y205704D01*
X89855Y205699D01*
X89744Y205655D01*
X89631Y205619D01*
X89596Y205597D01*
X89559Y205582D01*
X89463Y205512D01*
X89362Y205449D01*
X89334Y205419D01*
X89302Y205395D01*
X89226Y205304D01*
X89144Y205217D01*
X89125Y205182D01*
X89099Y205150D01*
X89048Y205043D01*
X88991Y204939D01*
X88980Y204899D01*
X88963Y204863D01*
X88941Y204746D01*
X88911Y204631D01*
X88907Y204570D01*
X88903Y204550D01*
X88905Y204530D01*
X88901Y204470D01*
X88901Y203199D01*
X88899Y203199D01*
X88899Y204470D01*
X88884Y204588D01*
X88877Y204707D01*
X88864Y204745D01*
X88859Y204785D01*
X88815Y204896D01*
X88779Y205009D01*
X88757Y205044D01*
X88742Y205081D01*
X88672Y205177D01*
X88609Y205278D01*
X88579Y205306D01*
X88555Y205338D01*
X88464Y205414D01*
X88377Y205496D01*
X88342Y205515D01*
X88310Y205541D01*
X88203Y205592D01*
X88099Y205649D01*
X88059Y205660D01*
X88023Y205677D01*
X87906Y205699D01*
X87791Y205729D01*
X87730Y205733D01*
X87710Y205737D01*
X87690Y205735D01*
X87630Y205739D01*
X74010Y205739D01*
X73892Y205724D01*
X73773Y205717D01*
X73735Y205704D01*
X73694Y205699D01*
X73584Y205655D01*
X73471Y205619D01*
X73436Y205597D01*
X73399Y205582D01*
X73303Y205512D01*
X73202Y205449D01*
X73174Y205419D01*
X73141Y205395D01*
X73065Y205304D01*
X72984Y205217D01*
X72964Y205182D01*
X72939Y205150D01*
X72888Y205043D01*
X72830Y204939D01*
X72820Y204899D01*
X72803Y204863D01*
X72781Y204746D01*
X72751Y204631D01*
X72747Y204570D01*
X72743Y204550D01*
X72745Y204530D01*
X72741Y204470D01*
X72741Y201930D01*
X72756Y201812D01*
X72763Y201693D01*
X72776Y201655D01*
X72781Y201615D01*
X72824Y201504D01*
X72861Y201391D01*
X72883Y201356D01*
X72898Y201319D01*
X72967Y201223D01*
X73031Y201122D01*
X73061Y201094D01*
X73084Y201061D01*
X73176Y200986D01*
X73263Y200904D01*
X73298Y200884D01*
X73329Y200859D01*
X73437Y200808D01*
X73541Y200750D01*
X73581Y200740D01*
X73617Y200723D01*
X73734Y200701D01*
X73849Y200671D01*
X73909Y200667D01*
X73929Y200663D01*
X73950Y200665D01*
X74010Y200661D01*
X86361Y200661D01*
X86361Y194309D01*
X74010Y194309D01*
X73892Y194294D01*
X73773Y194287D01*
X73735Y194274D01*
X73694Y194269D01*
X73584Y194226D01*
X73471Y194189D01*
X73436Y194167D01*
X73399Y194152D01*
X73303Y194083D01*
X73202Y194019D01*
X73174Y193989D01*
X73141Y193966D01*
X73065Y193874D01*
X72984Y193787D01*
X72964Y193752D01*
X72939Y193721D01*
X72888Y193613D01*
X72830Y193509D01*
X72820Y193469D01*
X72803Y193433D01*
X72781Y193316D01*
X72751Y193201D01*
X72747Y193141D01*
X72743Y193121D01*
X72745Y193100D01*
X72741Y193040D01*
X72741Y187452D01*
X72756Y187334D01*
X72763Y187215D01*
X72776Y187177D01*
X72781Y187136D01*
X72824Y187026D01*
X72861Y186913D01*
X72883Y186878D01*
X72898Y186841D01*
X72967Y186745D01*
X73031Y186644D01*
X73061Y186616D01*
X73084Y186583D01*
X73176Y186507D01*
X73263Y186426D01*
X73298Y186406D01*
X73329Y186381D01*
X73437Y186330D01*
X73541Y186272D01*
X73581Y186262D01*
X73617Y186245D01*
X73734Y186223D01*
X73849Y186193D01*
X73909Y186189D01*
X73929Y186185D01*
X73950Y186187D01*
X74010Y186183D01*
X103790Y186183D01*
X103908Y186198D01*
G37*
D10*
X88900Y203200D03*
X88900Y177800D03*
X88900Y152400D03*
X88900Y127000D03*
X88900Y101600D03*
D11*
X91400Y203155D03*
D12*
X91355Y203200D02*
X88900Y203200D01*
X91355Y203200D02*
X91400Y203155D01*
D11*
X83897Y152201D03*
D12*
X88701Y152201D02*
X88900Y152400D01*
X88701Y152201D02*
X83897Y152201D01*
D11*
X83400Y177800D03*
D12*
X88900Y177800D01*
D11*
X82553Y101580D03*
D12*
X88880Y101580D02*
X88900Y101600D01*
X88880Y101580D02*
X82553Y101580D01*
D11*
X83741Y127071D03*
M02*
