G04 EAGLE Gerber RS-274X export*
G75*
%MOMM*%
%FSLAX34Y34*%
%LPD*%
%INSilkscreen Bottom*%
%IPPOS*%
%AMOC8*
5,1,8,0,0,1.08239X$1,22.5*%
G01*
%ADD10C,0.152400*%


D10*
X101324Y118452D02*
X101324Y112690D01*
X98443Y109809D01*
X95562Y112690D01*
X95562Y118452D01*
X91969Y118452D02*
X91969Y109809D01*
X87647Y109809D01*
X86206Y111249D01*
X86206Y117012D01*
X87647Y118452D01*
X91969Y118452D01*
X82614Y118452D02*
X82614Y109809D01*
X78292Y109809D01*
X76851Y111249D01*
X76851Y117012D01*
X78292Y118452D01*
X82614Y118452D01*
X94654Y167961D02*
X96094Y169402D01*
X98976Y169402D01*
X100416Y167961D01*
X100416Y166520D01*
X98976Y165080D01*
X96094Y165080D01*
X94654Y163639D01*
X94654Y162199D01*
X96094Y160758D01*
X98976Y160758D01*
X100416Y162199D01*
X86739Y169402D02*
X85299Y167961D01*
X86739Y169402D02*
X89620Y169402D01*
X91061Y167961D01*
X91061Y162199D01*
X89620Y160758D01*
X86739Y160758D01*
X85299Y162199D01*
X81706Y160758D02*
X81706Y169402D01*
X81706Y160758D02*
X75944Y160758D01*
X95761Y193460D02*
X97201Y194901D01*
X100082Y194901D01*
X101523Y193460D01*
X101523Y192020D01*
X100082Y190579D01*
X97201Y190579D01*
X95761Y189139D01*
X95761Y187698D01*
X97201Y186257D01*
X100082Y186257D01*
X101523Y187698D01*
X92168Y186257D02*
X92168Y194901D01*
X92168Y186257D02*
X87846Y186257D01*
X86405Y187698D01*
X86405Y193460D01*
X87846Y194901D01*
X92168Y194901D01*
X82812Y192020D02*
X82812Y186257D01*
X82812Y192020D02*
X79931Y194901D01*
X77050Y192020D01*
X77050Y186257D01*
X77050Y190579D02*
X82812Y190579D01*
X101693Y135275D02*
X104574Y135275D01*
X103134Y135275D02*
X103134Y143918D01*
X104574Y143918D02*
X101693Y143918D01*
X98337Y143918D02*
X98337Y135275D01*
X92575Y135275D02*
X98337Y143918D01*
X92575Y143918D02*
X92575Y135275D01*
X86101Y135275D02*
X86101Y143918D01*
X88982Y143918D02*
X83220Y143918D01*
X79627Y141037D02*
X76746Y143918D01*
X76746Y135275D01*
X79627Y135275D02*
X73865Y135275D01*
M02*
