G04 EAGLE Gerber RS-274X export*
G75*
%MOMM*%
%FSLAX34Y34*%
%LPD*%
%INSilkscreen Top*%
%IPPOS*%
%AMOC8*
5,1,8,0,0,1.08239X$1,22.5*%
G01*
%ADD10C,0.254000*%
%ADD11C,0.203200*%
%ADD12C,0.406400*%

G36*
X79058Y172834D02*
X79058Y172834D01*
X79168Y172832D01*
X79216Y172843D01*
X79265Y172847D01*
X79370Y172880D01*
X79477Y172906D01*
X79521Y172929D01*
X79568Y172945D01*
X79661Y173003D01*
X79758Y173055D01*
X79795Y173088D01*
X79836Y173115D01*
X79912Y173195D01*
X79993Y173269D01*
X80021Y173310D01*
X80054Y173346D01*
X80108Y173443D01*
X80168Y173535D01*
X80184Y173581D01*
X80208Y173625D01*
X80235Y173732D01*
X80271Y173836D01*
X80275Y173885D01*
X80287Y173933D01*
X80298Y174093D01*
X80298Y175364D01*
X85378Y175364D01*
X85497Y175379D01*
X85615Y175387D01*
X85654Y175399D01*
X85694Y175404D01*
X85805Y175448D01*
X85918Y175485D01*
X85952Y175506D01*
X85990Y175521D01*
X86086Y175591D01*
X86186Y175655D01*
X86214Y175684D01*
X86247Y175708D01*
X86323Y175800D01*
X86404Y175886D01*
X86424Y175922D01*
X86450Y175953D01*
X86500Y176061D01*
X86558Y176165D01*
X86568Y176204D01*
X86585Y176241D01*
X86608Y176357D01*
X86637Y176473D01*
X86641Y176533D01*
X86645Y176553D01*
X86644Y176573D01*
X86648Y176633D01*
X86648Y179173D01*
X86633Y179292D01*
X86625Y179410D01*
X86613Y179449D01*
X86608Y179489D01*
X86564Y179600D01*
X86527Y179713D01*
X86506Y179747D01*
X86491Y179785D01*
X86421Y179881D01*
X86357Y179982D01*
X86328Y180009D01*
X86304Y180042D01*
X86212Y180118D01*
X86125Y180200D01*
X86090Y180219D01*
X86059Y180245D01*
X85951Y180296D01*
X85847Y180353D01*
X85808Y180363D01*
X85771Y180380D01*
X85654Y180403D01*
X85539Y180432D01*
X85479Y180436D01*
X85459Y180440D01*
X85439Y180439D01*
X85378Y180443D01*
X80298Y180443D01*
X80298Y181713D01*
X80291Y181762D01*
X80294Y181812D01*
X80279Y181882D01*
X80275Y181946D01*
X80264Y181981D01*
X80258Y182029D01*
X80240Y182075D01*
X80230Y182123D01*
X80195Y182195D01*
X80177Y182248D01*
X80160Y182275D01*
X80141Y182325D01*
X80112Y182365D01*
X80090Y182409D01*
X80033Y182475D01*
X80007Y182517D01*
X79988Y182535D01*
X79954Y182582D01*
X79916Y182614D01*
X79884Y182651D01*
X79807Y182705D01*
X79775Y182735D01*
X79756Y182746D01*
X79709Y182785D01*
X79664Y182806D01*
X79624Y182834D01*
X79532Y182869D01*
X79497Y182889D01*
X79479Y182893D01*
X79421Y182920D01*
X79373Y182930D01*
X79326Y182947D01*
X79226Y182958D01*
X79189Y182968D01*
X79164Y182970D01*
X79109Y182980D01*
X79060Y182977D01*
X79010Y182983D01*
X78901Y182967D01*
X78791Y182960D01*
X78745Y182945D01*
X78696Y182938D01*
X78594Y182896D01*
X78489Y182862D01*
X78447Y182836D01*
X78427Y182828D01*
X78411Y182821D01*
X78410Y182821D01*
X78401Y182817D01*
X78267Y182729D01*
X73187Y178919D01*
X73118Y178852D01*
X73083Y178827D01*
X73055Y178793D01*
X72983Y178728D01*
X72972Y178711D01*
X72958Y178698D01*
X72908Y178615D01*
X72880Y178582D01*
X72861Y178542D01*
X72809Y178462D01*
X72802Y178443D01*
X72792Y178427D01*
X72764Y178335D01*
X72744Y178294D01*
X72736Y178250D01*
X72706Y178161D01*
X72704Y178142D01*
X72698Y178123D01*
X72694Y178029D01*
X72685Y177982D01*
X72688Y177934D01*
X72680Y177844D01*
X72684Y177825D01*
X72683Y177805D01*
X72701Y177717D01*
X72704Y177664D01*
X72720Y177615D01*
X72735Y177531D01*
X72743Y177513D01*
X72747Y177494D01*
X72785Y177417D01*
X72802Y177362D01*
X72833Y177313D01*
X72866Y177241D01*
X72878Y177226D01*
X72887Y177208D01*
X72938Y177147D01*
X72973Y177093D01*
X73019Y177050D01*
X73064Y176993D01*
X73085Y176975D01*
X73093Y176966D01*
X73109Y176954D01*
X73187Y176888D01*
X78267Y173078D01*
X78310Y173054D01*
X78348Y173022D01*
X78447Y172975D01*
X78543Y172921D01*
X78591Y172908D01*
X78636Y172887D01*
X78743Y172866D01*
X78850Y172837D01*
X78899Y172836D01*
X78948Y172827D01*
X79058Y172834D01*
G37*
G36*
X96947Y186889D02*
X96947Y186889D01*
X97065Y186897D01*
X97104Y186909D01*
X97144Y186914D01*
X97255Y186958D01*
X97368Y186995D01*
X97402Y187016D01*
X97440Y187031D01*
X97536Y187101D01*
X97636Y187165D01*
X97664Y187194D01*
X97697Y187218D01*
X97773Y187310D01*
X97854Y187396D01*
X97874Y187432D01*
X97900Y187463D01*
X97950Y187571D01*
X98008Y187675D01*
X98018Y187714D01*
X98035Y187751D01*
X98058Y187867D01*
X98087Y187983D01*
X98091Y188043D01*
X98095Y188063D01*
X98094Y188083D01*
X98098Y188143D01*
X98098Y193224D01*
X99368Y193224D01*
X99417Y193230D01*
X99467Y193228D01*
X99575Y193250D01*
X99684Y193264D01*
X99730Y193282D01*
X99778Y193292D01*
X99877Y193341D01*
X99980Y193381D01*
X100020Y193410D01*
X100064Y193432D01*
X100148Y193503D01*
X100237Y193568D01*
X100268Y193606D01*
X100306Y193638D01*
X100369Y193728D01*
X100440Y193813D01*
X100461Y193858D01*
X100489Y193898D01*
X100528Y194001D01*
X100575Y194101D01*
X100585Y194149D01*
X100602Y194195D01*
X100614Y194305D01*
X100635Y194413D01*
X100632Y194462D01*
X100637Y194511D01*
X100622Y194621D01*
X100615Y194730D01*
X100600Y194777D01*
X100593Y194826D01*
X100551Y194928D01*
X100517Y195033D01*
X100491Y195075D01*
X100472Y195120D01*
X100384Y195255D01*
X96574Y200335D01*
X96555Y200354D01*
X96542Y200375D01*
X96469Y200443D01*
X96383Y200539D01*
X96366Y200549D01*
X96353Y200564D01*
X96321Y200583D01*
X96311Y200593D01*
X96255Y200623D01*
X96233Y200637D01*
X96117Y200713D01*
X96098Y200720D01*
X96082Y200730D01*
X96037Y200744D01*
X96032Y200746D01*
X96009Y200752D01*
X95948Y200771D01*
X95816Y200816D01*
X95797Y200818D01*
X95778Y200824D01*
X95695Y200828D01*
X95582Y200835D01*
X95499Y200841D01*
X95480Y200838D01*
X95460Y200839D01*
X95323Y200811D01*
X95243Y200797D01*
X95238Y200796D01*
X95237Y200796D01*
X95186Y200787D01*
X95168Y200779D01*
X95148Y200775D01*
X95023Y200713D01*
X94981Y200695D01*
X94942Y200679D01*
X94934Y200673D01*
X94896Y200656D01*
X94880Y200644D01*
X94863Y200635D01*
X94756Y200545D01*
X94753Y200542D01*
X94685Y200492D01*
X94672Y200477D01*
X94648Y200457D01*
X94630Y200437D01*
X94621Y200429D01*
X94609Y200412D01*
X94543Y200335D01*
X90733Y195255D01*
X90708Y195212D01*
X90677Y195174D01*
X90630Y195074D01*
X90576Y194979D01*
X90562Y194931D01*
X90541Y194886D01*
X90521Y194778D01*
X90492Y194672D01*
X90491Y194622D01*
X90482Y194574D01*
X90488Y194464D01*
X90487Y194354D01*
X90498Y194306D01*
X90501Y194257D01*
X90535Y194152D01*
X90561Y194045D01*
X90584Y194001D01*
X90599Y193954D01*
X90658Y193861D01*
X90710Y193764D01*
X90743Y193727D01*
X90770Y193685D01*
X90850Y193610D01*
X90924Y193528D01*
X90965Y193501D01*
X91001Y193467D01*
X91098Y193414D01*
X91190Y193354D01*
X91236Y193338D01*
X91280Y193314D01*
X91386Y193286D01*
X91491Y193251D01*
X91540Y193247D01*
X91588Y193234D01*
X91748Y193224D01*
X93019Y193224D01*
X93019Y188143D01*
X93034Y188025D01*
X93041Y187907D01*
X93054Y187868D01*
X93059Y187828D01*
X93103Y187717D01*
X93139Y187604D01*
X93161Y187570D01*
X93176Y187532D01*
X93246Y187436D01*
X93310Y187335D01*
X93339Y187308D01*
X93363Y187275D01*
X93455Y187199D01*
X93541Y187117D01*
X93577Y187098D01*
X93608Y187072D01*
X93715Y187021D01*
X93820Y186964D01*
X93859Y186954D01*
X93896Y186937D01*
X94012Y186914D01*
X94128Y186884D01*
X94188Y186881D01*
X94208Y186877D01*
X94228Y186878D01*
X94288Y186874D01*
X96828Y186874D01*
X96947Y186889D01*
G37*
D10*
X71760Y192936D02*
X71760Y191241D01*
X75149Y187851D01*
X78539Y191241D01*
X78539Y192936D01*
X75149Y187851D02*
X75149Y182767D01*
X89221Y197982D02*
X82442Y208150D01*
X89221Y208150D02*
X82442Y197982D01*
X92299Y182848D02*
X99078Y182848D01*
X99078Y181153D01*
X92299Y174374D01*
X92299Y172679D01*
X99078Y172679D01*
X105718Y177983D02*
X105715Y178229D01*
X105706Y178474D01*
X105691Y178719D01*
X105671Y178964D01*
X105644Y179208D01*
X105611Y179451D01*
X105573Y179694D01*
X105529Y179935D01*
X105479Y180175D01*
X105423Y180414D01*
X105361Y180652D01*
X105294Y180888D01*
X105221Y181123D01*
X105142Y181355D01*
X105058Y181586D01*
X104968Y181814D01*
X104873Y182041D01*
X104772Y182264D01*
X104666Y182486D01*
X104554Y182705D01*
X104438Y182921D01*
X104316Y183134D01*
X104189Y183344D01*
X104057Y183551D01*
X103920Y183755D01*
X103778Y183955D01*
X103631Y184152D01*
X103479Y184345D01*
X103323Y184535D01*
X103163Y184720D01*
X102998Y184902D01*
X102828Y185080D01*
X102655Y185253D01*
X102477Y185423D01*
X102295Y185588D01*
X102110Y185748D01*
X101920Y185904D01*
X101727Y186056D01*
X101530Y186203D01*
X101330Y186345D01*
X101126Y186482D01*
X100919Y186614D01*
X100709Y186741D01*
X100496Y186863D01*
X100280Y186979D01*
X100061Y187091D01*
X99839Y187197D01*
X99616Y187298D01*
X99389Y187393D01*
X99161Y187483D01*
X98930Y187567D01*
X98698Y187646D01*
X98463Y187719D01*
X98227Y187786D01*
X97989Y187848D01*
X97750Y187904D01*
X97510Y187954D01*
X97269Y187998D01*
X97026Y188036D01*
X96783Y188069D01*
X96539Y188096D01*
X96294Y188116D01*
X96049Y188131D01*
X95804Y188140D01*
X95558Y188143D01*
X105718Y177983D02*
X105715Y177737D01*
X105706Y177492D01*
X105691Y177247D01*
X105671Y177002D01*
X105644Y176758D01*
X105611Y176515D01*
X105573Y176272D01*
X105529Y176031D01*
X105479Y175791D01*
X105423Y175552D01*
X105361Y175314D01*
X105294Y175078D01*
X105221Y174843D01*
X105142Y174611D01*
X105058Y174380D01*
X104968Y174152D01*
X104873Y173925D01*
X104772Y173702D01*
X104666Y173480D01*
X104554Y173261D01*
X104438Y173045D01*
X104316Y172832D01*
X104189Y172622D01*
X104057Y172415D01*
X103920Y172211D01*
X103778Y172011D01*
X103631Y171814D01*
X103479Y171621D01*
X103323Y171431D01*
X103163Y171246D01*
X102998Y171064D01*
X102828Y170886D01*
X102655Y170713D01*
X102477Y170543D01*
X102295Y170378D01*
X102110Y170218D01*
X101920Y170062D01*
X101727Y169910D01*
X101530Y169763D01*
X101330Y169621D01*
X101126Y169484D01*
X100919Y169352D01*
X100709Y169225D01*
X100496Y169103D01*
X100280Y168987D01*
X100061Y168875D01*
X99839Y168769D01*
X99616Y168668D01*
X99389Y168573D01*
X99161Y168483D01*
X98930Y168399D01*
X98698Y168320D01*
X98463Y168247D01*
X98227Y168180D01*
X97989Y168118D01*
X97750Y168062D01*
X97510Y168012D01*
X97269Y167968D01*
X97026Y167930D01*
X96783Y167897D01*
X96539Y167870D01*
X96294Y167850D01*
X96049Y167835D01*
X95804Y167826D01*
X95558Y167823D01*
X95312Y167826D01*
X95067Y167835D01*
X94822Y167850D01*
X94577Y167870D01*
X94333Y167897D01*
X94090Y167930D01*
X93847Y167968D01*
X93606Y168012D01*
X93366Y168062D01*
X93127Y168118D01*
X92889Y168180D01*
X92653Y168247D01*
X92418Y168320D01*
X92186Y168399D01*
X91955Y168483D01*
X91727Y168573D01*
X91500Y168668D01*
X91277Y168769D01*
X91055Y168875D01*
X90836Y168987D01*
X90620Y169103D01*
X90407Y169225D01*
X90197Y169352D01*
X89990Y169484D01*
X89786Y169621D01*
X89586Y169763D01*
X89389Y169910D01*
X89196Y170062D01*
X89006Y170218D01*
X88821Y170378D01*
X88639Y170543D01*
X88461Y170713D01*
X88288Y170886D01*
X88118Y171064D01*
X87953Y171246D01*
X87793Y171431D01*
X87637Y171621D01*
X87485Y171814D01*
X87338Y172011D01*
X87196Y172211D01*
X87059Y172415D01*
X86927Y172622D01*
X86800Y172832D01*
X86678Y173045D01*
X86562Y173261D01*
X86450Y173480D01*
X86344Y173702D01*
X86243Y173925D01*
X86148Y174152D01*
X86058Y174380D01*
X85974Y174611D01*
X85895Y174843D01*
X85822Y175078D01*
X85755Y175314D01*
X85693Y175552D01*
X85637Y175791D01*
X85587Y176031D01*
X85543Y176272D01*
X85505Y176515D01*
X85472Y176758D01*
X85445Y177002D01*
X85425Y177247D01*
X85410Y177492D01*
X85401Y177737D01*
X85398Y177983D01*
X85399Y177984D02*
X85397Y178227D01*
X85402Y178470D01*
X85412Y178712D01*
X85429Y178955D01*
X85451Y179197D01*
X85479Y179438D01*
X85513Y179679D01*
X85553Y179918D01*
X85599Y180157D01*
X85651Y180394D01*
X85708Y180630D01*
X85771Y180865D01*
X85840Y181098D01*
X85914Y181329D01*
X85994Y181559D01*
X86079Y181786D01*
X86170Y182012D01*
X86267Y182235D01*
X86369Y182455D01*
X86476Y182673D01*
X86588Y182889D01*
X86706Y183101D01*
X86829Y183311D01*
X86957Y183517D01*
X87090Y183721D01*
X87227Y183921D01*
X87370Y184118D01*
X87517Y184311D01*
X87669Y184500D01*
X87826Y184686D01*
X87987Y184868D01*
X88152Y185046D01*
X88322Y185220D01*
X88496Y185390D01*
X88674Y185555D01*
X88856Y185716D01*
X89042Y185873D01*
X89231Y186025D01*
X89424Y186172D01*
X89621Y186315D01*
X89821Y186452D01*
X90025Y186585D01*
X90231Y186713D01*
X90441Y186836D01*
X90653Y186954D01*
X90869Y187066D01*
X91087Y187173D01*
X91307Y187275D01*
X91530Y187372D01*
X91756Y187463D01*
X91983Y187548D01*
X92213Y187628D01*
X92444Y187702D01*
X92677Y187771D01*
X92912Y187834D01*
X93148Y187891D01*
X93385Y187943D01*
X93624Y187989D01*
X93863Y188029D01*
X94104Y188063D01*
X94345Y188091D01*
X94587Y188113D01*
X94830Y188130D01*
X95072Y188140D01*
X95315Y188145D01*
X95558Y188143D01*
D11*
X105900Y144000D02*
X105900Y136000D01*
X105900Y144000D02*
X102400Y144000D01*
X71900Y144000D02*
X71900Y136000D01*
X71900Y144000D02*
X75400Y144000D01*
X75400Y110000D02*
X71900Y110000D01*
X71900Y118000D01*
X105900Y118000D02*
X105900Y110000D01*
X102400Y110000D01*
D12*
X103400Y149500D02*
X103402Y149563D01*
X103408Y149625D01*
X103418Y149687D01*
X103431Y149749D01*
X103449Y149809D01*
X103470Y149868D01*
X103495Y149926D01*
X103524Y149982D01*
X103556Y150036D01*
X103591Y150088D01*
X103629Y150137D01*
X103671Y150185D01*
X103715Y150229D01*
X103763Y150271D01*
X103812Y150309D01*
X103864Y150344D01*
X103918Y150376D01*
X103974Y150405D01*
X104032Y150430D01*
X104091Y150451D01*
X104151Y150469D01*
X104213Y150482D01*
X104275Y150492D01*
X104337Y150498D01*
X104400Y150500D01*
X104463Y150498D01*
X104525Y150492D01*
X104587Y150482D01*
X104649Y150469D01*
X104709Y150451D01*
X104768Y150430D01*
X104826Y150405D01*
X104882Y150376D01*
X104936Y150344D01*
X104988Y150309D01*
X105037Y150271D01*
X105085Y150229D01*
X105129Y150185D01*
X105171Y150137D01*
X105209Y150088D01*
X105244Y150036D01*
X105276Y149982D01*
X105305Y149926D01*
X105330Y149868D01*
X105351Y149809D01*
X105369Y149749D01*
X105382Y149687D01*
X105392Y149625D01*
X105398Y149563D01*
X105400Y149500D01*
X105398Y149437D01*
X105392Y149375D01*
X105382Y149313D01*
X105369Y149251D01*
X105351Y149191D01*
X105330Y149132D01*
X105305Y149074D01*
X105276Y149018D01*
X105244Y148964D01*
X105209Y148912D01*
X105171Y148863D01*
X105129Y148815D01*
X105085Y148771D01*
X105037Y148729D01*
X104988Y148691D01*
X104936Y148656D01*
X104882Y148624D01*
X104826Y148595D01*
X104768Y148570D01*
X104709Y148549D01*
X104649Y148531D01*
X104587Y148518D01*
X104525Y148508D01*
X104463Y148502D01*
X104400Y148500D01*
X104337Y148502D01*
X104275Y148508D01*
X104213Y148518D01*
X104151Y148531D01*
X104091Y148549D01*
X104032Y148570D01*
X103974Y148595D01*
X103918Y148624D01*
X103864Y148656D01*
X103812Y148691D01*
X103763Y148729D01*
X103715Y148771D01*
X103671Y148815D01*
X103629Y148863D01*
X103591Y148912D01*
X103556Y148964D01*
X103524Y149018D01*
X103495Y149074D01*
X103470Y149132D01*
X103449Y149191D01*
X103431Y149251D01*
X103418Y149313D01*
X103408Y149375D01*
X103402Y149437D01*
X103400Y149500D01*
M02*
